<svg version="1.2" xmlns="http://www.w3.org/2000/svg" viewBox="0 0 1531 374" width="1531" height="374">
	<style>
		.s0 { fill: #ffffff } 
	</style>
	<path id="aisello" class="s0" aria-label="aisello"  d="m119.6 115.8c-38.6 0-80.4 10-108.5 28.6l29 58.6c16.8-13.2 43.1-21.3 66.8-21.3 34 0 50.8 14.1 52.2 39h-49.1c-76.2 0-109.4 28.2-109.4 73.6 0 42.6 32.7 75.8 91.7 75.8 35.9 0 60.4-12.3 72.7-35.9v31.8h80.3v-136.7c0-78-45.8-113.5-125.7-113.5zm-3.2 199.8c-20.4 0-32.2-10.4-32.2-25 0-14.9 9.9-24.9 37.6-24.9h37.3v21.3c-6.8 19.5-23.6 28.6-42.7 28.6zm226.4-222.9c31.8 0 52.7-20 52.7-47.2 0-25.9-20.9-44.5-52.7-44.5-31.8 0-52.6 20-52.6 45.8 0 25.9 20.8 45.9 52.6 45.9zm-43.1 273.3h86.3v-246.1h-86.3zm231.4 4.1c79.9 0 121.7-35.4 121.7-80.8 0-97.6-144.8-60.8-144.8-94.9 0-9.1 10.4-17.2 39.5-17.2 21.8 0 46.3 4.5 70.8 18.1l25.9-58.5c-24.5-13.7-62.7-20.9-97.2-20.9-77.2 0-119.8 35.4-119.8 81.7 0 98.5 145.2 60.8 145.2 94 0 10.4-9.5 16.8-38.5 16.8-30 0-63.1-8.7-85.8-22.7l-25.9 59c24 15 67.2 25.4 108.9 25.4zm411.1-126.6c0-81.3-59-127.6-131.7-127.6-77.6 0-135.2 52.6-135.2 126.6 0 73.6 56.7 127.6 144.3 127.6 46.8 0 81.3-13.6 104.9-39.9l-45.4-47.3c-16.8 14.6-32.7 21.4-56.7 21.4-31.8 0-53.2-14.5-60.4-39.5h178.8c0.5-6.8 1.4-15 1.4-21.3zm-131.2-66.3c26.8 0 45.9 16.3 50.4 42.2h-100.8c5-25.9 23.6-42.2 50.4-42.2zm170.7 188.8h86.3v-336.8h-86.3zm142 0h86.3v-336.9h-86.3zm265.5 4.1c81.2 0 138.9-53.1 138.9-127.6 0-74-57.7-126.7-138.9-126.7-80.4 0-138.9 52.7-138.9 126.7 0 74.5 58.5 127.6 138.9 127.6zm0-68.6c-29.1 0-51.8-21.3-51.8-59 0-37.2 22.7-58.1 51.8-58.1 29.5 0 51.7 20.9 51.7 58.1 0 37.7-22.2 59-51.7 59z"/>
</svg>